<?xml version="1.0" standalone="no"?>
<!DOCTYPE svg PUBLIC "-//W3C//DTD SVG 20010904//EN"
 "http://www.w3.org/TR/2001/REC-SVG-20010904/DTD/svg10.dtd">
<svg version="1.0" xmlns="http://www.w3.org/2000/svg"
 width="200.000000pt" height="200.000000pt" viewBox="0 0 200.000000 200.000000"
 preserveAspectRatio="xMidYMid meet">
<metadata>
Created by potrace 1.11, written by Peter Selinger 2001-2013
</metadata>
<g transform="translate(0.000000,200.000000) scale(0.100000,-0.100000)"
fill="#000000" stroke="none">
<path d="M977 1940 c-6 -17 -17 -28 -23 -26 -14 5 -47 -28 -37 -37 3 -4 15 -7
26 -7 31 0 55 -27 49 -55 -4 -21 -32 -58 -32 -41 0 3 -16 -3 -35 -14 -47 -26
-59 -25 -18 1 25 16 31 25 24 37 -4 10 -6 23 -4 30 3 6 0 12 -6 12 -6 0 -11
-13 -11 -29 0 -16 -6 -34 -14 -40 -12 -10 -17 -8 -26 10 -10 18 -9 24 4 31 15
9 22 49 10 61 -10 10 -34 -4 -34 -21 0 -12 -3 -13 -12 -4 -24 24 -31 12 -8
-13 22 -23 22 -25 4 -25 -18 0 -18 -1 2 -18 22 -17 36 -50 38 -87 1 -19 9 -20
129 -23 l127 -3 0 24 c0 37 20 85 38 92 14 5 14 7 2 15 -13 8 -12 11 5 24 11
8 16 18 11 23 -5 4 -11 2 -13 -4 -7 -20 -20 -15 -27 10 -6 22 -7 22 -21 3 -19
-25 -19 -31 1 -51 9 -8 13 -22 10 -30 -8 -22 -37 -18 -43 5 -7 26 -15 25 -31
-1 -8 -12 -9 -18 -3 -15 6 4 23 0 38 -9 16 -9 19 -13 8 -9 -11 3 -29 7 -39 9
-31 3 -67 41 -59 62 11 30 24 43 48 43 12 0 24 3 28 6 12 12 -6 34 -28 34 -12
0 -28 6 -35 14 -6 8 -19 12 -28 9 -14 -5 -15 -3 -5 7 10 11 15 11 29 -1 16
-13 16 -12 5 9 -16 30 -31 28 -44 -8z m-12 -50 c3 -5 -3 -10 -15 -10 -12 0
-18 5 -15 10 3 6 10 10 15 10 5 0 12 -4 15 -10z m51 -1 c8 -14 -11 -33 -25
-25 -11 7 -4 36 9 36 5 0 12 -5 16 -11z m49 1 c3 -5 -1 -10 -10 -10 -9 0 -13
5 -10 10 3 6 8 10 10 10 2 0 7 -4 10 -10z m-34 -120 c5 0 9 -5 9 -10 0 -7 -6
-7 -18 -1 -11 6 -24 6 -33 0 -7 -5 -21 -9 -29 -9 -9 0 -4 6 10 14 14 8 31 12
38 10 8 -2 18 -4 23 -4z m75 -68 c-6 -10 -193 -8 -203 2 -3 3 42 6 101 6 59 0
105 -4 102 -8z"/>
<path d="M1075 1830 c3 -5 10 -10 16 -10 5 0 9 5 9 10 0 6 -7 10 -16 10 -8 0
-12 -4 -9 -10z"/>
<path d="M556 1801 c-10 -11 -22 -18 -26 -16 -7 5 -20 -27 -20 -52 0 -13 37
-28 60 -24 9 2 3 -10 -15 -28 -24 -26 -30 -29 -38 -16 -9 17 -37 21 -37 5 0
-5 6 -10 14 -10 27 0 25 -16 -4 -51 -17 -19 -27 -26 -24 -16 3 9 1 17 -5 17
-6 0 -10 5 -8 11 1 6 -6 16 -16 22 -14 9 -19 9 -26 -2 -6 -9 -11 -10 -15 -2
-4 6 -14 11 -23 11 -11 0 -14 -7 -11 -25 3 -13 1 -26 -4 -27 -5 -2 -6 -16 -3
-30 8 -31 39 -45 60 -28 19 16 19 6 0 -31 -9 -16 -20 -27 -25 -24 -15 9 -40
-7 -40 -26 0 -11 7 -22 15 -25 17 -7 20 -49 5 -59 -5 -3 -10 -1 -10 4 0 6 -11
11 -25 11 -20 0 -29 -8 -40 -32 -13 -32 -11 -53 4 -44 4 3 5 -12 3 -32 l-5
-36 26 17 c31 20 41 22 31 6 -5 -8 1 -10 18 -6 22 6 29 1 52 -34 15 -22 25
-46 22 -52 -3 -9 -5 -9 -5 1 -1 14 -41 17 -41 3 0 -5 -8 -7 -19 -4 -15 4 -18
-1 -17 -26 1 -17 5 -31 9 -31 11 0 -2 -41 -19 -58 -18 -17 -3 -48 27 -57 l21
-7 -23 -24 c-16 -17 -26 -21 -34 -14 -14 11 -49 1 -52 -15 -1 -5 -5 -18 -8
-27 -4 -10 -3 -18 3 -18 5 0 8 -11 7 -25 -4 -31 9 -40 29 -19 9 8 16 11 16 5
0 -18 26 -12 45 10 16 16 17 25 9 47 -16 41 -8 52 27 40 34 -12 35 -15 12 -40
-14 -16 -14 -22 -3 -43 7 -13 17 -22 22 -19 4 3 8 -1 9 -8 0 -7 2 -21 4 -30 5
-27 -14 -21 -21 6 -3 14 -15 33 -26 43 -20 18 -21 18 -13 -7 4 -14 13 -32 20
-40 20 -25 29 -44 18 -37 -6 4 -24 4 -41 1 -22 -5 -28 -10 -25 -24 3 -10 -3
-29 -12 -43 -13 -20 -14 -30 -5 -46 6 -12 16 -21 21 -21 6 0 1 -9 -12 -19 -13
-11 -26 -15 -27 -10 -2 5 -13 9 -23 9 -21 0 -56 -62 -38 -68 5 -2 9 -15 9 -28
0 -27 10 -30 28 -12 10 10 15 10 21 -1 7 -11 12 -11 29 0 12 7 22 11 24 9 19
-30 35 -70 28 -70 -5 0 -29 -18 -55 -40 -27 -23 -51 -37 -60 -34 -23 9 -19 -8
36 -147 32 -83 56 -129 65 -129 26 0 25 24 -6 115 -16 49 -30 96 -30 105 0 9
16 35 35 57 19 23 35 46 35 52 0 6 5 11 12 11 6 0 3 10 -9 23 -18 20 -63 126
-63 149 0 6 9 8 23 4 12 -4 27 -8 34 -10 23 -4 23 -13 3 -31 -25 -22 -25 -29
-1 -52 23 -22 32 -71 19 -98 -6 -11 -24 -34 -41 -52 -38 -40 -31 -63 19 -63
21 0 34 -3 30 -7 -4 -4 -23 -6 -42 -5 -26 2 -34 -1 -31 -10 3 -7 20 -58 37
-113 34 -104 52 -135 79 -135 9 0 65 16 124 35 134 43 227 62 337 70 121 9
226 -15 463 -106 89 -34 100 -26 147 98 57 152 57 138 3 140 -25 1 -51 7 -57
13 -13 13 14 13 50 0 21 -8 31 -8 42 3 12 13 9 20 -22 55 -41 45 -46 71 -15
79 15 4 17 8 8 14 -7 4 -21 3 -30 -2 -14 -7 -13 1 9 43 26 52 27 53 44 33 14
-16 19 -17 27 -6 7 11 13 10 33 -3 25 -16 25 -16 20 10 -2 14 0 29 6 33 17 10
-14 71 -37 71 -10 0 -21 -5 -23 -11 -2 -5 -15 2 -28 16 -14 15 -19 25 -12 23
8 -2 19 5 25 14 9 14 8 24 -6 47 -9 16 -14 36 -11 44 4 12 -4 18 -30 23 -40 7
-42 10 -22 33 7 9 17 27 20 41 7 24 6 24 -8 6 -9 -11 -19 -16 -23 -11 -5 4 -2
10 5 12 17 7 15 41 -4 61 -16 15 -15 17 12 28 36 15 50 -2 32 -40 -10 -23 -8
-29 13 -52 21 -22 25 -23 35 -9 8 10 14 12 19 6 3 -6 13 -11 22 -11 11 0 14 7
11 25 -3 13 -2 26 3 27 4 2 5 15 2 30 -5 28 -39 44 -59 27 -8 -7 -15 -6 -19 2
-4 6 -2 15 5 19 8 5 9 10 2 14 -6 3 -12 0 -15 -6 -2 -7 -8 -10 -12 -6 -5 4 4
19 18 32 32 30 32 27 7 56 -14 17 -24 20 -31 13 -16 -16 -49 -3 -49 18 0 11 5
19 10 19 6 0 10 -4 10 -10 0 -13 37 -13 45 0 4 6 8 24 10 41 3 24 1 30 -11 25
-8 -3 -17 1 -20 9 -5 11 -11 12 -26 4 -29 -16 -30 -8 -2 39 21 36 29 41 50 36
15 -4 24 -2 24 5 0 8 8 7 22 -3 31 -22 34 -20 32 16 -1 18 1 35 6 38 5 3 2 20
-5 38 -11 24 -20 32 -39 32 -13 0 -26 -6 -29 -12 -2 -7 -8 0 -12 15 -5 20 -3
32 7 40 9 7 18 20 21 30 6 17 4 18 -41 21 -8 1 -20 12 -27 26 -19 33 -19 45 0
30 21 -17 49 -4 62 30 9 23 8 30 -1 30 -8 0 -11 11 -8 32 l5 32 -26 -17 c-15
-10 -27 -12 -29 -6 -5 14 -38 0 -38 -17 0 -8 -4 -14 -10 -14 -5 0 -7 -8 -4
-17 4 -10 -17 8 -46 39 -28 32 -59 63 -68 69 -14 9 -14 10 6 6 12 -3 22 -1 22
4 0 5 3 8 8 8 44 -7 47 25 6 66 -34 34 -36 35 -41 15 -3 -12 -11 -19 -19 -16
-18 7 -28 -29 -14 -54 10 -19 9 -19 -15 -8 -14 6 -25 17 -25 25 0 7 -4 13 -10
13 -24 0 -7 -31 24 -44 50 -21 116 -84 109 -103 -4 -10 -2 -14 4 -10 11 7 71
-58 104 -112 19 -31 19 -31 -1 -31 -12 0 -24 8 -27 18 -4 9 -17 30 -30 45 -13
16 -23 34 -23 40 0 7 -9 18 -20 25 -11 7 -20 21 -20 31 0 11 -9 23 -21 26 -24
8 -89 -2 -89 -13 0 -5 -22 -8 -48 -8 -45 1 -48 3 -44 24 5 25 -25 65 -40 55
-15 -9 -28 19 -16 34 6 8 9 15 7 18 -8 8 -26 -10 -34 -34 -5 -16 -4 -21 4 -17
17 11 26 -24 12 -45 -9 -15 -8 -19 4 -19 8 0 15 -3 15 -7 0 -5 -90 -9 -200 -9
-110 -1 -200 3 -200 7 0 5 7 9 15 9 12 0 13 4 6 19 -6 10 -8 21 -5 24 3 3 -3
10 -14 16 -15 8 -23 7 -32 -4 -7 -8 -16 -12 -21 -9 -5 3 -9 0 -9 -5 0 -6 3
-11 8 -11 4 0 7 -11 7 -24 0 -22 -4 -24 -45 -24 -25 0 -47 4 -51 9 -3 5 -23
12 -45 15 -45 6 -63 -7 -68 -50 -3 -30 -16 -48 -16 -22 0 9 -5 14 -10 11 -8
-5 -7 -11 0 -20 9 -11 5 -21 -19 -47 -17 -18 -31 -42 -31 -53 0 -14 -3 -16
-11 -8 -6 6 -18 9 -25 6 -21 -8 -17 8 14 52 41 62 74 95 85 88 6 -4 8 0 4 10
-4 11 9 29 42 59 41 37 48 48 47 78 -1 23 -6 35 -15 35 -8 0 -17 8 -20 18 -6
17 -8 17 -25 -2z m745 -200 c-12 -8 -9 -11 12 -16 15 -4 24 -11 21 -16 -3 -5
0 -9 5 -9 6 0 11 -4 11 -9 0 -5 -148 -8 -346 -7 -309 1 -346 3 -355 17 -7 13
-3 18 17 23 13 4 22 11 19 16 -4 6 109 10 312 10 196 0 312 -4 304 -9z m182
-70 c15 -22 27 -43 27 -48 0 -4 -17 -18 -37 -29 l-37 -21 -38 47 c-21 26 -38
53 -38 59 0 10 22 15 58 14 6 -1 12 3 12 8 0 21 27 6 53 -30z m-812 -17 c21
-21 39 -41 39 -44 -1 -3 -16 -22 -35 -43 l-33 -38 -36 18 -35 18 39 50 c21 27
37 51 35 54 -3 2 -13 -7 -24 -20 -54 -68 -57 -71 -77 -65 -10 3 -29 14 -42 24
l-22 17 29 36 c28 33 34 36 76 34 39 -2 53 -9 86 -41z m634 -12 l-30 -27 -274
1 -273 2 -26 26 -27 26 330 0 330 -1 -30 -27z m115 -72 c0 -3 -14 -14 -31 -24
l-31 -18 -28 33 c-35 41 -36 46 -7 77 l22 24 37 -44 c21 -23 38 -45 38 -48z
m-151 31 c3 -1 -5 -10 -16 -20 -19 -18 -37 -20 -249 -19 -192 0 -232 3 -246
16 -10 8 -18 18 -18 21 0 4 494 6 529 2z m-529 -23 c18 -23 18 -23 -12 -55
-26 -27 -33 -30 -49 -20 -11 7 -19 16 -19 21 0 8 51 74 58 75 2 1 12 -9 22
-21z m600 -53 c0 -8 -31 -34 -41 -35 -3 0 -15 14 -28 31 -21 28 -22 32 -6 55
l16 24 29 -34 c17 -18 30 -37 30 -41z m-770 27 l65 -38 -1 -102 c-1 -56 3
-102 7 -102 5 0 9 43 9 95 0 52 3 95 8 95 4 0 14 -6 23 -13 14 -11 16 -63 17
-439 l1 -426 -24 -16 c-13 -9 -26 -16 -27 -16 -2 0 -2 146 0 325 1 179 -1 325
-5 325 -5 0 -8 -147 -8 -327 l0 -328 -32 -22 c-18 -13 -33 -23 -35 -23 -2 0
-3 169 -2 375 0 206 -3 375 -7 375 -4 0 -7 -170 -8 -377 l-1 -378 -27 -22
c-16 -13 -32 -23 -38 -23 -6 0 -9 32 -9 79 2 65 6 84 22 101 26 28 36 64 17
56 -11 -4 -12 0 -5 19 10 27 2 33 -18 13 -15 -15 -16 0 -1 39 8 21 7 30 -4 38
-22 17 -13 139 12 167 12 12 21 25 21 29 0 4 3 15 7 25 5 13 3 16 -10 11 -14
-5 -15 -2 -7 18 9 25 -2 36 -15 15 -3 -5 -11 -10 -16 -10 -6 0 -1 12 10 26 25
32 26 44 5 44 -14 0 -14 2 0 22 21 29 20 40 -1 36 -14 -2 -17 7 -20 55 -2 34
1 57 7 57 5 0 10 -4 10 -10 0 -5 5 -10 10 -10 18 0 10 22 -9 27 -26 7 -23 41
7 73 22 23 32 67 12 55 -6 -4 -6 3 0 21 l11 27 -26 -17 c-24 -16 -25 -15 -25
3 0 10 7 24 15 31 11 9 12 15 5 20 -11 7 -4 40 9 40 3 0 35 -17 71 -38z m924
-2 c-13 -5 -12 -9 5 -24 20 -18 29 -46 14 -46 -3 0 -15 8 -26 18 -19 17 -20
16 -13 -11 4 -19 3 -26 -4 -22 -5 3 -10 0 -10 -7 0 -21 29 -58 46 -58 14 0 18
-10 15 -45 0 -11 -2 -47 -4 -80 -2 -55 -4 -60 -24 -59 -27 1 -28 -4 -7 -34 14
-20 14 -22 0 -22 -23 0 -20 -13 9 -40 13 -12 22 -27 18 -33 -3 -5 -10 -3 -15
7 -14 25 -31 19 -26 -9 3 -13 1 -22 -3 -19 -5 3 -9 -6 -9 -19 0 -25 21 -49 54
-61 14 -5 17 -12 11 -29 -4 -12 -6 -32 -6 -44 0 -13 -3 -23 -9 -23 -9 0 -6
-32 5 -50 3 -6 -3 -10 -14 -10 -24 0 -24 0 -11 -35 5 -14 14 -24 18 -21 4 2 9
-4 9 -15 2 -23 -12 -25 -21 -4 -8 23 -29 18 -23 -5 3 -11 1 -20 -4 -20 -5 0
-9 -8 -9 -18 0 -22 35 -62 55 -62 12 0 15 -17 15 -86 l0 -85 -42 25 -43 26 0
516 c0 498 1 517 19 530 17 11 21 11 32 -4 10 -14 10 -18 -2 -22z m-231 -37
l27 -36 0 -432 0 -431 -39 -38 c-22 -21 -43 -36 -48 -33 -32 20 -280 28 -373
13 l-63 -10 -28 34 -29 34 0 435 0 435 32 33 32 33 230 0 231 -1 28 -36z m167
-469 l0 -506 -32 19 -33 19 0 468 0 468 24 19 c13 11 28 19 32 19 5 0 9 -228
9 -506z m145 442 c-10 -22 -11 -37 -5 -41 6 -4 4 -17 -5 -36 -21 -39 -29 -37
-20 7 4 23 2 39 -5 44 -15 9 -4 33 23 46 12 7 23 12 24 13 1 0 -5 -15 -12 -33z
m-1115 7 c0 -3 -8 -18 -17 -34 -16 -26 -16 -29 0 -47 19 -21 24 -67 6 -56 -6
3 -9 14 -6 24 3 13 0 17 -9 13 -13 -5 -23 22 -22 62 1 11 -2 27 -6 36 -6 13
-1 15 24 11 16 -2 30 -6 30 -9z m890 -448 l0 -455 -24 11 -24 11 0 427 c0 373
2 428 15 444 9 9 20 17 25 17 4 0 8 -205 8 -455z m-910 196 c0 -23 -35 -34
-51 -15 -9 11 -7 14 9 14 12 0 24 5 27 10 9 15 15 12 15 -9z m1160 -485 c0 -7
-6 -29 -14 -47 -7 -19 -16 -43 -20 -54 -6 -16 -9 -17 -16 -5 -5 9 -5 19 2 28
8 9 7 20 -3 38 -12 23 -11 27 6 40 24 18 45 18 45 0z m-871 -185 l21 -29 -31
-7 c-24 -6 -36 -2 -52 14 -21 21 -21 21 -2 36 29 21 41 18 64 -14z m601 11
l21 -17 -23 -21 c-19 -18 -29 -20 -57 -12 l-34 9 29 30 c33 34 35 34 64 11z
m-676 -40 c15 -18 15 -19 -9 -30 -34 -16 -50 -15 -64 2 -10 12 -7 18 16 30 36
19 37 19 57 -2z m746 -2 c22 -17 23 -21 10 -34 -13 -13 -21 -13 -51 -3 -35 12
-36 13 -20 34 20 27 29 28 61 3z m-233 -5 c102 -16 177 -38 256 -74 55 -25
120 -45 169 -53 12 -2 15 -7 9 -16 -8 -13 -64 3 -291 83 -126 44 -193 54 -335
51 -164 -4 -182 -8 -370 -71 -119 -40 -180 -52 -189 -36 -5 7 1 11 14 11 12 0
83 20 159 45 75 25 165 51 201 59 83 18 271 18 377 1z m-594 -45 c-12 -12 -84
-33 -90 -27 -2 3 12 17 34 30 27 18 42 22 51 14 7 -5 9 -13 5 -17z m932 -14
c19 -14 19 -15 2 -22 -10 -4 -35 1 -57 11 -33 15 -37 20 -27 35 10 16 14 17
36 5 14 -7 35 -20 46 -29z m-540 -5 c3 -5 -4 -7 -14 -4 -17 4 -20 0 -19 -27 1
-26 5 -31 20 -27 10 3 18 1 18 -4 0 -5 -12 -9 -27 -9 -25 0 -28 4 -31 38 -2
34 0 38 22 40 14 1 27 -2 31 -7z m42 -31 c-1 -22 -5 -40 -9 -40 -4 0 -8 18 -8
40 0 22 4 40 9 40 5 0 8 -18 8 -40z m75 -6 c-4 -34 -3 -37 18 -31 16 4 20 3
12 -5 -5 -5 -19 -7 -30 -4 -16 5 -20 15 -19 41 1 19 7 35 12 35 7 0 9 -15 7
-36z m-270 -14 c4 0 8 -8 8 -17 -1 -14 -6 -11 -25 11 -13 17 -21 34 -18 40 4
5 11 0 16 -12 6 -12 14 -22 19 -22z m58 20 c9 12 10 9 4 -10 -3 -14 -8 -27
-10 -29 -6 -7 -42 44 -37 52 3 5 11 0 19 -10 12 -16 15 -16 24 -3z m286 5 c-3
-9 0 -15 9 -15 8 0 15 -4 15 -10 0 -5 -7 -7 -17 -3 -13 5 -15 2 -11 -15 4 -15
2 -19 -9 -15 -8 3 -12 12 -9 20 3 8 6 23 6 34 0 10 5 19 11 19 6 0 9 -7 5 -15z
m39 5 c3 -6 -1 -7 -9 -4 -18 7 -21 14 -7 14 6 0 13 -4 16 -10z m73 -34 c2 -9
-2 -16 -8 -16 -8 0 -8 -6 0 -20 7 -12 7 -20 1 -20 -5 0 -13 9 -16 20 -4 11
-11 18 -16 14 -5 -3 -7 -10 -4 -15 4 -5 1 -9 -6 -9 -7 0 -9 9 -5 23 3 12 6 30
6 39 0 14 5 16 23 9 12 -5 23 -16 25 -25z m-546 17 c-6 -2 -9 -10 -5 -16 8
-12 9 -17 12 -37 1 -7 9 -7 24 1 16 8 19 8 11 0 -18 -20 -54 -22 -54 -3 0 9
-3 27 -6 40 -5 17 -2 22 12 21 11 0 14 -3 6 -6z m612 -34 c4 6 12 11 17 11 5
0 -2 -11 -16 -25 -14 -14 -25 -30 -25 -36 0 -6 -5 -7 -10 -4 -8 5 -7 11 0 20
8 10 8 19 1 34 -17 31 -12 38 8 12 12 -16 21 -20 25 -12z m-656 -16 c7 -24 8
-40 2 -45 -5 -5 -8 -5 -6 -2 3 3 -2 23 -9 45 -8 21 -11 39 -6 39 4 0 13 -17
19 -37z m369 21 c-3 -3 -12 -4 -19 -1 -8 3 -5 6 6 6 11 1 17 -2 13 -5z m163
-93 c41 -10 117 -35 168 -55 52 -20 107 -39 123 -43 31 -6 38 -18 15 -26 -12
-5 -37 3 -197 62 -237 87 -415 84 -691 -9 -92 -31 -123 -36 -133 -21 -10 17
272 97 380 108 28 3 51 7 53 8 11 10 220 -8 282 -24z"/>
<path d="M552 1285 c0 -69 4 -125 9 -125 11 0 11 238 0 245 -5 2 -8 -52 -9
-120z"/>
<path d="M633 1135 c0 -14 3 -25 8 -25 5 0 9 11 9 25 0 14 -4 25 -9 25 -5 0
-8 -11 -8 -25z"/>
<path d="M485 780 c3 -5 10 -10 16 -10 5 0 9 5 9 10 0 6 -7 10 -16 10 -8 0
-12 -4 -9 -10z"/>
<path d="M492 441 c4 -13 18 -16 19 -4 0 4 -5 9 -11 12 -7 2 -11 -2 -8 -8z"/>
<path d="M1480 1190 c-8 -5 -11 -12 -7 -16 4 -4 13 -2 19 4 15 15 7 24 -12 12z"/>
<path d="M1481 786 c-7 -8 -8 -17 -3 -20 6 -3 13 1 16 10 9 23 2 28 -13 10z"/>
<path d="M764 1121 c4 -6 16 -11 27 -11 10 0 20 -3 20 -7 1 -5 2 -91 3 -191 1
-175 0 -184 -19 -195 -11 -6 -21 -10 -22 -9 -2 1 -4 -1 -5 -4 -2 -4 44 -8 102
-9 58 -1 132 -5 165 -9 37 -4 83 -2 120 6 l60 13 3 60 c2 42 8 64 19 73 9 6
13 12 7 13 -43 4 -90 5 -97 1 -5 -2 -1 -12 7 -21 9 -10 14 -32 13 -55 -3 -54
-34 -73 -114 -67 l-22 1 24 24 c48 48 45 127 -6 170 -17 14 -38 26 -47 27 -10
0 -3 7 15 15 37 16 53 41 53 83 0 25 4 31 23 31 30 0 88 -37 94 -61 10 -38 23
-18 23 36 0 30 -4 55 -10 55 -5 0 -10 -10 -10 -21 0 -16 -3 -19 -12 -11 -7 5
-35 13 -63 18 -27 4 -63 16 -78 28 -25 18 -45 21 -154 24 -88 3 -123 0 -119
-7z m217 -27 c12 -15 10 -19 -11 -33 -30 -19 -61 -50 -76 -77 -10 -15 -12 -7
-12 46 0 36 2 68 5 73 8 14 80 7 94 -9z m21 -81 c-5 -32 -29 -63 -49 -63 -20
0 -16 21 13 63 28 42 44 42 36 0z m-23 -118 c28 -14 51 -58 51 -96 0 -10 -11
-31 -24 -46 l-24 -28 -26 55 c-26 56 -35 130 -16 130 6 0 24 -7 39 -15z m-55
-177 c-10 -15 -34 6 -34 29 l0 25 19 -23 c11 -13 17 -27 15 -31z"/>
<path d="M1232 279 c2 -6 8 -10 13 -10 5 0 11 4 13 10 2 6 -4 11 -13 11 -9 0
-15 -5 -13 -11z"/>
<path d="M706 1775 c-9 -23 11 -65 31 -65 26 0 38 12 38 38 0 37 -56 59 -69
27z"/>
<path d="M1223 1778 c-24 -12 -31 -28 -12 -28 8 0 8 -4 -1 -15 -10 -12 -7 -15
16 -21 31 -8 57 17 52 51 -4 23 -24 28 -55 13z"/>
<path d="M650 1745 c0 -8 -4 -15 -10 -15 -5 0 -10 -4 -10 -9 0 -5 9 -7 20 -4
20 5 29 43 10 43 -5 0 -10 -7 -10 -15z"/>
<path d="M803 1725 c13 -27 22 -31 32 -15 3 6 1 10 -4 10 -6 0 -11 7 -11 15 0
8 -6 15 -14 15 -11 0 -12 -5 -3 -25z"/>
<path d="M666 1704 c-23 -33 -12 -68 17 -60 12 3 27 6 32 6 19 0 9 50 -12 65
-19 13 -22 12 -37 -11z"/>
<path d="M1259 1702 c-16 -17 -18 -24 -8 -20 13 5 16 2 11 -14 -4 -17 -2 -20
11 -15 9 3 17 1 19 -5 3 -7 12 -9 21 -5 26 10 22 61 -6 74 -19 9 -27 7 -48
-15z"/>
<path d="M1467 1674 c-4 -4 -4 -10 -1 -15 6 -10 34 0 34 12 0 10 -24 12 -33 3z"/>
<path d="M874 1658 c-3 -4 54 -8 125 -8 72 0 131 3 131 8 0 10 -250 10 -256 0z"/>
<path d="M377 1243 c-10 -9 -9 -23 2 -23 5 0 11 7 15 15 5 15 -5 20 -17 8z"/>
<path d="M1586 1236 c3 -9 11 -16 16 -16 13 0 5 23 -10 28 -7 2 -10 -2 -6 -12z"/>
<path d="M355 990 c-3 -5 1 -10 10 -10 9 0 13 5 10 10 -3 6 -8 10 -10 10 -2 0
-7 -4 -10 -10z"/>
<path d="M380 840 c-8 -5 -11 -12 -7 -16 4 -4 13 -2 19 4 15 15 7 24 -12 12z"/>
<path d="M1587 834 c3 -7 9 -14 14 -14 14 0 10 17 -5 23 -10 4 -13 1 -9 -9z"/>
<path d="M329 475 c-41 -27 -53 -49 -36 -63 26 -21 105 41 94 72 -8 21 -16 20
-58 -9z"/>
<path d="M1626 457 c-3 -12 -4 -22 -3 -22 1 -1 17 -13 35 -28 63 -51 98 -25
43 31 -40 39 -68 46 -75 19z"/>
<path d="M1576 421 c-8 -12 3 -41 15 -41 5 0 20 -17 34 -38 28 -43 27 -47 -27
-180 -21 -49 -21 -53 -5 -69 10 -11 20 -14 25 -8 9 10 69 156 97 235 14 39 14
40 -8 40 -13 0 -38 15 -57 35 -33 34 -63 44 -74 26z"/>
</g>
</svg>
